<svg width="79" height="72" viewBox="0 0 79 72" fill="none" xmlns="http://www.w3.org/2000/svg">
<path fill-rule="evenodd" clip-rule="evenodd" d="M39.5 22.5H36V26H39.5V29.5H43V33H39.5V36.5H36V40H32.5V43.5H36V47H39.5V50.5H43V54H46.5V57.5H50V54H53.5V50.5H57V57.5H67.5V50.5H64V47H60.5V43.5H64V40H67.5V36.5H64V33H60.5V29.5H57V26H53.5V22.5H50V26H46.5V29.5H43V26H39.5V22.5ZM46.5 33H43V36.5H39.5V40H36V43.5H60.5V40H64V36.5H60.5V33H57V29.5H53.5V26H50V29.5H46.5V33ZM46.5 33V36.5H50V33H46.5ZM60.5 47V50.5H57V47H60.5Z" fill="#E09C00"/>
<path d="M4.66683 46.3335H18.6668V48.6668H4.66683V46.3335Z" fill="#FB5147"/>
<path d="M4.66683 53.3335H2.3335V48.6668H4.66683V53.3335Z" fill="#FB5147"/>
<path d="M18.6668 53.3335V55.6668H4.66683V53.3335H18.6668Z" fill="#FB5147"/>
<path d="M23.3335 53.3335H18.6668V48.6668H21.0002V51.0002H23.3335V53.3335Z" fill="#FB5147"/>
<path d="M23.3335 58.0002V53.3335H25.6668V58.0002H23.3335Z" fill="#FB5147"/>
<path d="M14.0002 60.3335V58.0002H23.3335V60.3335H14.0002Z" fill="#FB5147"/>
<path fill-rule="evenodd" clip-rule="evenodd" d="M16.3335 62.6668H14.0002V60.3335H11.6668V62.6668H9.3335V69.6668H16.3335V62.6668ZM14.0002 65.0002H11.6668V67.3335H14.0002V65.0002Z" fill="#FB5147"/>
<path d="M29 2.5H34V5H29V2.5Z" fill="#30BA59"/>
<path d="M26.5 7.5V5H29V7.5H26.5Z" fill="#30BA59"/>
<path d="M24 10V7.5H26.5V10H24Z" fill="#30BA59"/>
<path d="M21.5 12.5V10H24V12.5H21.5Z" fill="#30BA59"/>
<path fill-rule="evenodd" clip-rule="evenodd" d="M21.5 17.5V12.5H19V15H16.5V17.5H14V22.5H11.5V25H21.5V22.5H24V17.5H26.5V15H29V12.5H31.5V10H34V7.5H36.5V5H34V7.5H31.5V10H29V12.5H26.5V15H24V17.5H21.5ZM21.5 17.5H16.5V22.5H21.5V17.5Z" fill="#30BA59"/>
</svg>
