<svg width="24" height="24" viewBox="0 0 24 24" fill="none" xmlns="http://www.w3.org/2000/svg">
<g clip-path="url(#clip0_104_709)">
<path d="M12 24C18.6274 24 24 18.6274 24 12C24 5.37257 18.6274 0 12 0C5.37257 0 0 5.37257 0 12C0 18.6274 5.37257 24 12 24Z" fill="#0098EA"/>
<path d="M16.0972 6.69775H7.9022C6.39543 6.69775 5.4404 8.32311 6.19846 9.63707L11.2561 18.4034C11.5862 18.9758 12.4133 18.9758 12.7433 18.4034L17.802 9.63707C18.559 8.32521 17.604 6.69775 16.0982 6.69775H16.0972ZM11.252 15.7745L10.1505 13.6428L7.49278 8.88934C7.31746 8.5851 7.53401 8.19523 7.90117 8.19523H11.251V15.7755L11.252 15.7745ZM16.5046 8.88831L13.8479 13.6438L12.7464 15.7745V8.1942H16.0962C16.4633 8.1942 16.6799 8.58407 16.5046 8.88831Z" fill="white"/>
</g>
<defs>
<clipPath id="clip0_104_709">
<rect width="24" height="24" fill="white"/>
</clipPath>
</defs>
</svg>
