<svg width="28" height="28" viewBox="0 0 28 28" fill="none" xmlns="http://www.w3.org/2000/svg">
<path d="M13.9998 3.33317V0.666504L21.9998 0.666504V3.33317L13.9998 3.33317Z" fill="#9A45E5"/>
<path d="M21.9998 11.3332V3.33317L24.6665 3.33317V11.3332H21.9998Z" fill="#9A45E5"/>
<path d="M21.9998 13.9998L21.9998 11.3332L16.6665 11.3332L16.6665 13.9998L21.9998 13.9998Z" fill="#9A45E5"/>
<path d="M24.6665 16.6665H21.9998V13.9998H24.6665V16.6665Z" fill="#9A45E5"/>
<path d="M24.6665 21.9998V16.6665H27.3332V21.9998H24.6665Z" fill="#9A45E5"/>
<path d="M24.6665 21.9998V24.6665H19.3332V21.9998H24.6665Z" fill="#9A45E5"/>
<path d="M13.9998 3.33317V5.99984L5.99984 5.99984L5.99984 3.33317L13.9998 3.33317Z" fill="#9A45E5"/>
<path d="M5.99984 13.9998L3.33317 13.9998L3.33317 5.99984L5.99984 5.99984L5.99984 13.9998Z" fill="#9A45E5"/>
<path fill-rule="evenodd" clip-rule="evenodd" d="M13.9998 13.9998L5.99984 13.9998L5.99984 16.6665H3.33317L3.33317 19.3332H0.666504L0.666504 24.6665H3.33317L3.33317 27.3332L16.6665 27.3332V24.6665H19.3332V19.3332H16.6665V16.6665H13.9998V13.9998ZM13.9998 16.6665L13.9998 19.3332H16.6665V24.6665L3.33317 24.6665L3.33317 19.3332H5.99984V16.6665L13.9998 16.6665Z" fill="#9A45E5"/>
<path d="M13.9998 13.9998H16.6665L16.6665 5.99984L13.9998 5.99984L13.9998 13.9998Z" fill="#9A45E5"/>
</svg>
