<svg width="17" height="15" viewBox="0 0 17 15" fill="none" xmlns="http://www.w3.org/2000/svg">
<path d="M9.16667 8.33333V5H7.5V8.33333H9.16667Z" fill="#00B843"/>
<path d="M9.16667 11.6667V10H7.5V11.6667H9.16667Z" fill="#00B843"/>
<path fill-rule="evenodd" clip-rule="evenodd" d="M6.66667 0V1.66667H5V3.33333H3.33333L3.33333 6.66667H1.66667V10H0V13.3333L1.66667 13.3333L1.66667 15L15 15V13.3333H16.6667V10H15V6.66667H13.3333V3.33333H11.6667V1.66667H10V0H6.66667ZM10 1.66667V3.33333H11.6667V6.66667H13.3333V10H15V13.3333L1.66667 13.3333V10H3.33333L3.33333 6.66667H5V3.33333H6.66667V1.66667H10Z" fill="#00B843"/>
</svg>
