<svg width="19" height="22" viewBox="0 0 19 22" fill="none" xmlns="http://www.w3.org/2000/svg">
<path d="M2.70847 8.12541L2.70847 2.70847L5.41694 2.70847L5.41694 2.36782e-07L0 0L-3.55173e-07 8.12541L2.70847 8.12541Z" fill="#E9EBEC"/>
<path d="M5.41694 13.5423L5.41694 8.12541L2.70847 8.12541L2.70847 13.5423L5.41694 13.5423Z" fill="#E9EBEC"/>
<path d="M8.1254 18.9593L8.1254 13.5423L5.41694 13.5423L5.41694 18.9593L8.1254 18.9593Z" fill="#E9EBEC"/>
<path d="M10.8339 18.9593L8.1254 18.9593L8.1254 21.6677L10.8339 21.6677L10.8339 18.9593Z" fill="#E9EBEC"/>
<path d="M13.5423 13.5423L10.8339 13.5423L10.8339 18.9593L13.5423 18.9593L13.5423 13.5423Z" fill="#E9EBEC"/>
<path d="M16.2508 8.12541L13.5423 8.12541L13.5423 13.5423L16.2508 13.5423L16.2508 8.12541Z" fill="#E9EBEC"/>
<path d="M13.5423 2.70847L13.5423 5.91955e-07L18.9593 8.28736e-07L18.9593 8.12541L16.2508 8.12541L16.2508 2.70847L13.5423 2.70847Z" fill="#E9EBEC"/>
<path d="M10.8339 5.41694L13.5423 5.41694L13.5423 2.70847L10.8339 2.70847L10.8339 5.41694Z" fill="#E9EBEC"/>
<path fill-rule="evenodd" clip-rule="evenodd" d="M8.1254 5.41694L5.41694 5.41694L5.41694 2.70847L8.1254 2.70847L8.1254 5.41694ZM8.1254 5.41694L8.1254 8.12541L10.8339 8.12541L10.8339 5.41694L8.1254 5.41694Z" fill="#E9EBEC"/>
</svg>
