<svg width="7" height="12" viewBox="0 0 7 12" fill="none" xmlns="http://www.w3.org/2000/svg">
<path d="M0 5.99735C0.0035515 5.87384 0.028412 5.76092 0.0745814 5.65858C0.120751 5.55624 0.191781 5.45743 0.287671 5.36215L5.62557 0.227614C5.77829 0.0758712 5.96651 0 6.19026 0C6.33942 0 6.47438 0.0352889 6.59513 0.105867C6.71943 0.176445 6.8171 0.271725 6.88813 0.391707C6.96271 0.511689 7 0.645787 7 0.794001C7 1.01279 6.91654 1.20512 6.74962 1.37097L1.92314 5.99206L6.74962 10.6184C6.91654 10.7878 7 10.9802 7 11.1954C7 11.3472 6.96271 11.483 6.88813 11.603C6.8171 11.723 6.71943 11.8183 6.59513 11.8888C6.47438 11.9629 6.33942 12 6.19026 12C5.96651 12 5.77829 11.9224 5.62557 11.7671L0.287671 6.63255C0.188229 6.53727 0.115424 6.43846 0.0692542 6.33613C0.0230847 6.23026 0 6.11734 0 5.99735Z" fill="white"/>
</svg>
