<svg width="15" height="15" viewBox="0 0 15 15" fill="none" xmlns="http://www.w3.org/2000/svg">
<path d="M15 15H13.3333V13.3333H15V15Z" fill="#D5D8DA"/>
<path d="M11.6667 11.6667H13.3333V13.3333H11.6667V11.6667Z" fill="#D5D8DA"/>
<path d="M10 10H11.6667L11.6667 11.6667H10V10Z" fill="#D5D8DA"/>
<path d="M8.33333 8.33334H10V10H8.33333V8.33334Z" fill="#D5D8DA"/>
<path fill-rule="evenodd" clip-rule="evenodd" d="M5 10V8.33334H6.66667V10H5ZM6.66667 8.33334H8.33333V6.66667H6.66667V5L5 5L5 3.33334H3.33333V1.66667L1.66667 1.66667L1.66667 5.3379e-06L1.31134e-06 5.19219e-06L1.16564e-06 1.66667L1.66667 1.66667L1.66667 3.33334L3.33333 3.33334L3.33333 5.00001L5 5V6.66667L6.66667 6.66667V8.33334Z" fill="#D5D8DA"/>
<path fill-rule="evenodd" clip-rule="evenodd" d="M3.33333 11.6667L3.33333 13.3333H1.66667V11.6667L3.33333 11.6667ZM3.33333 11.6667V10L5 10V11.6667H3.33333Z" fill="#D5D8DA"/>
<path fill-rule="evenodd" clip-rule="evenodd" d="M13.3333 3.33333L11.6667 3.33333V1.66667L13.3333 1.66667V3.33333ZM13.3333 1.66667V0L15 1.45705e-07V1.66667L13.3333 1.66667Z" fill="#D5D8DA"/>
<path d="M10 5V3.33333L11.6667 3.33333V5H10Z" fill="#D5D8DA"/>
<path d="M10 5L8.33333 5V6.66667L10 6.66667V5Z" fill="#D5D8DA"/>
<path d="M0 15H1.66667L1.66667 13.3333H1.45705e-07L0 15Z" fill="#D5D8DA"/>
</svg>
