<svg width="24" height="24" viewBox="0 0 24 24" fill="none" xmlns="http://www.w3.org/2000/svg">
<path d="M7 1H17V3H7V1Z" fill="white"/>
<path d="M5 5V3H7V5H5Z" fill="white"/>
<path d="M3 7V5H5V7H3Z" fill="white"/>
<path d="M3 17V7H1V17H3Z" fill="white"/>
<path d="M5 19H3V17H5V19Z" fill="white"/>
<path d="M7 21H5V19H7V21Z" fill="white"/>
<path d="M17 21V23H7V21H17Z" fill="white"/>
<path d="M19 19V21H17V19H19Z" fill="white"/>
<path d="M21 17V19H19V17H21Z" fill="white"/>
<path d="M21 7H23V17H21V7Z" fill="white"/>
<path fill-rule="evenodd" clip-rule="evenodd" d="M19 5V3H17V5H19ZM19 5H21V7H19V5Z" fill="white"/>
<path d="M17 8H19V11H17V8Z" fill="white"/>
<path d="M9 8H11V11H9V8Z" fill="white"/>
<path d="M17 13H19V15H17V13Z" fill="white"/>
<path fill-rule="evenodd" clip-rule="evenodd" d="M11 15H9V13H11V15ZM11 15H17V17H11V15Z" fill="white"/>
</svg>
