<svg width="24" height="22" viewBox="0 0 24 22" fill="none" xmlns="http://www.w3.org/2000/svg">
<g filter="url(#filter0_d_94_956)">
<path fill-rule="evenodd" clip-rule="evenodd" d="M10 6V8H8V12H10V14H14V12H16V8H14V6H10ZM14 8V12H10V8H14Z" fill="white"/>
<path fill-rule="evenodd" clip-rule="evenodd" d="M6 0H4V2H2V4H4V8H2V12H4V16H2L2 18H4V20H6V18H10V20H14V18H18V20H20V18H22V16H20V12H22V8H20V4H22V2H20V0H18V2H14V0H10V2H6V0ZM6 4H10V2H14V4H18V8H20V12H18V16H14V18H10V16H6V12H4V8H6V4ZM6 4V2H4V4H6ZM18 4H20V2H18V4ZM18 16V18H20V16H18ZM6 16H4V18H6V16Z" fill="white"/>
</g>
<defs>
<filter id="filter0_d_94_956" x="-2" y="0" width="28" height="28" filterUnits="userSpaceOnUse" color-interpolation-filters="sRGB">
<feFlood flood-opacity="0" result="BackgroundImageFix"/>
<feColorMatrix in="SourceAlpha" type="matrix" values="0 0 0 0 0 0 0 0 0 0 0 0 0 0 0 0 0 0 127 0" result="hardAlpha"/>
<feOffset dy="4"/>
<feGaussianBlur stdDeviation="2"/>
<feComposite in2="hardAlpha" operator="out"/>
<feColorMatrix type="matrix" values="0 0 0 0 0 0 0 0 0 0 0 0 0 0 0 0 0 0 0.25 0"/>
<feBlend mode="normal" in2="BackgroundImageFix" result="effect1_dropShadow_94_956"/>
<feBlend mode="normal" in="SourceGraphic" in2="effect1_dropShadow_94_956" result="shape"/>
</filter>
</defs>
</svg>
