<svg width="18" height="18" viewBox="0 0 18 18" fill="none" xmlns="http://www.w3.org/2000/svg">
<path d="M10 16V18H8V16H10Z" fill="#B161FF"/>
<path d="M12 14V16H10V14H12Z" fill="#B161FF"/>
<path d="M6 14V16H8L8 14H6Z" fill="#B161FF"/>
<path d="M14 12V14H12V12H14Z" fill="#B161FF"/>
<path d="M4 12V14H6V12H4Z" fill="#B161FF"/>
<path d="M16 10V12H14V10H16Z" fill="#B161FF"/>
<path d="M2 10V12H4V10H2Z" fill="#B161FF"/>
<path d="M16 2V4H14V2H16Z" fill="#B161FF"/>
<path d="M2 2V4H4L4 2H2Z" fill="#B161FF"/>
<path d="M4 6V8H6V6H4Z" fill="#B161FF"/>
<path d="M6 8V10H8L8 8H6Z" fill="#B161FF"/>
<path d="M8 10V12H10V10H8Z" fill="#B161FF"/>
<path d="M14 0V2H4L4 4.37114e-07L14 0Z" fill="#B161FF"/>
<path d="M18 4V10H16V4H18Z" fill="#B161FF"/>
<path d="M2.62268e-07 4L0 10H2V4H2.62268e-07Z" fill="#B161FF"/>
</svg>
