<svg width="24" height="24" viewBox="0 0 24 24" fill="none" xmlns="http://www.w3.org/2000/svg">
<path d="M7 1H17V3H13V5H11V3H7V1Z" fill="white"/>
<path d="M5 5H7V3H5V5Z" fill="white"/>
<path d="M3 7H5V5H3V7Z" fill="white"/>
<path d="M9 17H11V19H9V17Z" fill="white"/>
<path fill-rule="evenodd" clip-rule="evenodd" d="M9 7H7V11H3V7H1V17H3V19H5V21H7V23H17V21H19V19H21V17H23V7H21V5H19V3H17V5H19V7H21V11H17V7H15V5H13V7H15V11H9V7ZM15 17H17V13H21V17H19V19H17V21H13V19H15V17ZM9 17H7V13H3V17H5V19H7V21H11V19H13V17H15V13H9V17Z" fill="white"/>
<path d="M9 7H11V5H9V7Z" fill="white"/>
</svg>
