<svg width="18" height="20" viewBox="0 0 18 20" fill="none" xmlns="http://www.w3.org/2000/svg">
<path d="M8 2V1.19209e-07L10 0V2H8Z" fill="#0098EA"/>
<path d="M6 4V2H8V4H6Z" fill="#0098EA"/>
<path d="M4 6V4H6V6H4Z" fill="#0098EA"/>
<path d="M2 8V6H4V8H2Z" fill="#0098EA"/>
<path d="M2 18H0V8H2V18Z" fill="#0098EA"/>
<path d="M7 14V20H2V18H5V14H7Z" fill="#0098EA"/>
<path d="M11 14H7V12H11V14Z" fill="#0098EA"/>
<path d="M16 18H13V14H11V20H16V18Z" fill="#0098EA"/>
<path d="M16 8H18V18H16V8Z" fill="#0098EA"/>
<path d="M14 6H16V8H14V6Z" fill="#0098EA"/>
<path d="M12 4H14V6H12V4Z" fill="#0098EA"/>
<path d="M12 4V2H10V4H12Z" fill="#0098EA"/>
</svg>
