<svg width="14" height="16" viewBox="0 0 14 16" fill="none" xmlns="http://www.w3.org/2000/svg">
<path d="M8.66658 7.16667L6.99992 7.16667L6.99992 0.5L8.66658 0.5L8.66658 7.16667Z" fill="#6F7376"/>
<path d="M6.99992 7.16667L6.99992 5.5H13.6666V7.16667L6.99992 7.16667Z" fill="#6F7376"/>
<path d="M5.33325 8.83333H6.99992L6.99992 15.5H5.33325L5.33325 8.83333Z" fill="#6F7376"/>
<path d="M6.99992 12.1667H8.66658V13.8333H6.99992L6.99992 12.1667Z" fill="#6F7376"/>
<path d="M0.333252 7.16667L1.99992 7.16667L1.99992 8.83333H0.333253L0.333252 7.16667Z" fill="#6F7376"/>
<path d="M8.66658 10.5H10.3333V12.1667H8.66658V10.5Z" fill="#6F7376"/>
<path d="M1.99992 5.5L3.66659 5.5L3.66659 7.16667L1.99992 7.16667L1.99992 5.5Z" fill="#6F7376"/>
<path d="M10.3333 8.83333H11.9999V10.5H10.3333V8.83333Z" fill="#6F7376"/>
<path d="M3.66659 3.83333L5.33325 3.83333V5.5L3.66659 5.5V3.83333Z" fill="#6F7376"/>
<path d="M11.9999 7.16667L13.6666 7.16667V8.83333H11.9999V7.16667Z" fill="#6F7376"/>
<path d="M5.33325 2.16667L6.99992 2.16667V3.83333L5.33325 3.83333V2.16667Z" fill="#6F7376"/>
<path d="M6.99992 8.83333L6.99992 10.5H0.333252L0.333253 8.83333L6.99992 8.83333Z" fill="#6F7376"/>
</svg>
