<svg width="16" height="20" viewBox="0 0 16 20" fill="none" xmlns="http://www.w3.org/2000/svg">
<path d="M16 20L0 20L2.33127e-07 18L16 18V20Z" fill="#E9EBEC"/>
<path d="M16 8L0 8L2.33127e-07 6L16 6V8Z" fill="#E9EBEC"/>
<path d="M5 6L3 6L3 2L5 2V6Z" fill="#E9EBEC"/>
<path d="M11 2L5 2V0L11 5.24537e-07V2Z" fill="#E9EBEC"/>
<path d="M13 6L11 6V2L13 2V6Z" fill="#E9EBEC"/>
<path d="M9 15H7V11H9V15Z" fill="#E9EBEC"/>
<path d="M16 18L14 18L14 8H16V18Z" fill="#E9EBEC"/>
<path d="M2 18H2.33127e-07L0 8L2 8L2 18Z" fill="#E9EBEC"/>
</svg>
