<svg width="30" height="24" viewBox="0 0 30 24" fill="none" xmlns="http://www.w3.org/2000/svg">
<path fill-rule="evenodd" clip-rule="evenodd" d="M5.66671 2.66667L3.00004 2.66667L3.00004 8H0.333374L0.333374 13.3333H3.00004L3.00004 24L27 24V13.3333L29.6667 13.3333L29.6667 8L27 8V2.66667L24.3334 2.66667V0L5.66671 0V2.66667ZM5.66671 2.66667L24.3334 2.66667V8H27L27 13.3333H20.3334L20.3334 10.6667H17.6667L17.6667 13.3333L12.3334 13.3333V10.6667H9.66671V13.3333L3.00004 13.3333L3.00004 8H5.66671L5.66671 2.66667ZM24.3334 21.3333V16H20.3334V13.3333H17.6667V16H12.3334V13.3333H9.66671V16H5.66671L5.66671 21.3333L24.3334 21.3333Z" fill="#0098EA"/>
</svg>
