<svg width="20" height="19" viewBox="0 0 20 19" fill="none" xmlns="http://www.w3.org/2000/svg">
<path d="M18 9V17H16V9H18Z" fill="#B161FF"/>
<path d="M4 9L4 17H2L2 9H4Z" fill="#B161FF"/>
<path d="M18 19L2 19L2 17H18V19Z" fill="#B161FF"/>
<path d="M18 11L2 11L2 9H18V11Z" fill="#B161FF"/>
<path d="M20 9H18V6L20 6V9Z" fill="#B161FF"/>
<path d="M2 9H0L2.09815e-07 6L2 6L2 9Z" fill="#B161FF"/>
<path d="M13 17L11 17V5L13 5V17Z" fill="#B161FF"/>
<path d="M9 17L7 17V5L9 5V17Z" fill="#B161FF"/>
<path d="M13 2L11 2V0L13 1.74846e-07V2Z" fill="#B161FF"/>
<path d="M15 2H13V1.74846e-07H15V2Z" fill="#B161FF"/>
<path d="M15 4H13V2H15V4Z" fill="#B161FF"/>
<path d="M9 2L7 2V0L9 1.74846e-07V2Z" fill="#B161FF"/>
<path d="M11 4H9V2L11 2V4Z" fill="#B161FF"/>
<path d="M7 2H5V0H7V2Z" fill="#B161FF"/>
<path d="M7 4H5V2H7V4Z" fill="#B161FF"/>
<path d="M18 6L2 6L2 4L18 4V6Z" fill="#B161FF"/>
</svg>
