<svg width="22" height="22" viewBox="0 0 22 22" fill="none" xmlns="http://www.w3.org/2000/svg">
<path d="M0 12L7.86805e-07 6L2 6L2 12H0Z" fill="#6F7376"/>
<path d="M6 2L6 4L4 4V6L2 6V2L6 2Z" fill="#6F7376"/>
<path d="M12 2L6 2L6 0L12 2.69415e-06L12 2Z" fill="#6F7376"/>
<path d="M16 6L14 6L14 4L12 4V2L16 2L16 6Z" fill="#6F7376"/>
<path d="M16 6H18V12L16 12V6Z" fill="#6F7376"/>
<path d="M2 12L2 16H6L6 18H12V16H16L16 12H14L14 14L12 14L12 16H6V14H4L4 12L2 12Z" fill="#6F7376"/>
<path d="M18 16V18H16L16 16H18Z" fill="#6F7376"/>
<path d="M20 20H18L18 18H20L20 20Z" fill="#6F7376"/>
<path d="M20 20H22V22H20V20Z" fill="#6F7376"/>
</svg>
