<svg width="20" height="20" viewBox="0 0 20 20" fill="none" xmlns="http://www.w3.org/2000/svg">
<path fill-rule="evenodd" clip-rule="evenodd" d="M10 6H14V8H18V6H20V2H18V1.19209e-07L14 0V2H12V4H10V6ZM14 2H18V6H14V2Z" fill="#E9EBEC"/>
<path d="M8 8H10V6H8V8Z" fill="#E9EBEC"/>
<path fill-rule="evenodd" clip-rule="evenodd" d="M8 12V8H6V6H2V8H1.19209e-07L0 12H2V14H6V12H8ZM2 12H6V8H2V12Z" fill="#E9EBEC"/>
<path d="M10 14V12H8V14H10Z" fill="#E9EBEC"/>
<path fill-rule="evenodd" clip-rule="evenodd" d="M14 14H10V16H12V18H14V20H18V18H20V14H18V12H14V14ZM14 14H18V18H14V14Z" fill="#E9EBEC"/>
</svg>
