<svg width="24" height="24" viewBox="0 0 24 24" fill="none" xmlns="http://www.w3.org/2000/svg">
<path d="M16 10.6667L13.3333 10.6667L13.3333 8L16 8V10.6667Z" fill="#9A45E5"/>
<path d="M13.3333 8L10.6667 8L10.6667 6.99382e-07L13.3333 0L13.3333 8Z" fill="#9A45E5"/>
<path d="M10.6667 10.6667L8 10.6667L8 8L10.6667 8L10.6667 10.6667Z" fill="#9A45E5"/>
<path d="M8 13.3333L6.99383e-07 13.3333L0 10.6667L8 10.6667L8 13.3333Z" fill="#9A45E5"/>
<path d="M10.6667 16L8 16L8 13.3333H10.6667L10.6667 16Z" fill="#9A45E5"/>
<path d="M13.3333 24L10.6667 24L10.6667 16H13.3333L13.3333 24Z" fill="#9A45E5"/>
<path d="M16 16H13.3333L13.3333 13.3333L16 13.3333V16Z" fill="#9A45E5"/>
<path d="M24 13.3333H16V10.6667L24 10.6667V13.3333Z" fill="#9A45E5"/>
</svg>
