<svg width="24" height="24" viewBox="0 0 24 24" fill="none" xmlns="http://www.w3.org/2000/svg">
<path d="M2 2L12 2V4L4 4V12H2L2 2Z" fill="white"/>
<path d="M6 14H4V12H6V14Z" fill="white"/>
<path d="M8 16H6V14H8V16Z" fill="white"/>
<path d="M10 18H8V16H10V18Z" fill="white"/>
<path d="M12 20H10V18H12V20Z" fill="white"/>
<path d="M14 20V22H12V20H14Z" fill="white"/>
<path d="M16 18V20H14V18H16Z" fill="white"/>
<path d="M18 16V18H16V16H18Z" fill="white"/>
<path d="M20 14V16H18V14H20Z" fill="white"/>
<path d="M20 12H22V14H20V12Z" fill="white"/>
<path fill-rule="evenodd" clip-rule="evenodd" d="M16 8H18V10H16V8ZM18 10H20V12H18V10Z" fill="white"/>
<path fill-rule="evenodd" clip-rule="evenodd" d="M14 6V4L12 4V6H14ZM14 6H16V8H14V6Z" fill="white"/>
<path fill-rule="evenodd" clip-rule="evenodd" d="M8 6V8L6 8V10H8V12H10V10H12V8H10V6H8ZM10 8V10H8V8H10Z" fill="white"/>
</svg>
