<svg width="16" height="18" viewBox="0 0 16 18" fill="none" xmlns="http://www.w3.org/2000/svg">
<path d="M10 8L8 8L8 5.24536e-07L10 0L10 8Z" fill="#6F7376"/>
<path d="M8 8L8 6H16V8L8 8Z" fill="#6F7376"/>
<path d="M6 10H8L8 18H6L6 10Z" fill="#6F7376"/>
<path d="M8 14H10V16H8L8 14Z" fill="#6F7376"/>
<path d="M3.77509e-07 8L2 8L2 10H7.272e-07L3.77509e-07 8Z" fill="#6F7376"/>
<path d="M10 12H12V14H10V12Z" fill="#6F7376"/>
<path d="M2 6L4 6L4 8L2 8L2 6Z" fill="#6F7376"/>
<path d="M12 10H14V12H12V10Z" fill="#6F7376"/>
<path d="M4 4L6 4V6L4 6V4Z" fill="#6F7376"/>
<path d="M14 8L16 8V10H14V8Z" fill="#6F7376"/>
<path d="M6 2L8 2V4L6 4V2Z" fill="#6F7376"/>
<path d="M8 10L8 12L0 12L7.272e-07 10L8 10Z" fill="#6F7376"/>
</svg>
