<svg width="48" height="48" viewBox="0 0 48 48" fill="none" xmlns="http://www.w3.org/2000/svg">
<g clip-path="url(#clip0_1050_10993)">
<path d="M20.6059 3.39411C22.4804 1.5196 25.5196 1.5196 27.3941 3.39411L44.6059 20.6059C46.4804 22.4804 46.4804 25.5196 44.6059 27.3941L27.3941 44.6059C25.5196 46.4804 22.4804 46.4804 20.6059 44.6059L3.39411 27.3941C1.5196 25.5196 1.5196 22.4804 3.39411 20.6059L20.6059 3.39411Z" fill="url(#paint0_linear_1050_10993)"/>
<path d="M21.582 4.37012C22.9176 3.03462 25.0824 3.03462 26.418 4.37012L43.6299 21.582C44.9654 22.9176 44.9654 25.0824 43.6299 26.418L26.418 43.6299C25.0824 44.9654 22.9176 44.9654 21.582 43.6299L4.37012 26.418C3.03462 25.0824 3.03462 22.9176 4.37012 21.582L21.582 4.37012Z" stroke="white" stroke-opacity="0.2" stroke-width="2.76"/>
<path d="M25.2001 33.5999H22.8001L22.8001 14.3999L25.2001 14.3999L25.2001 33.5999Z" fill="#D6FFDD"/>
<path d="M27.6001 25.1999H25.2001V22.7999H27.6001V25.1999Z" fill="#D6FFDD"/>
<path d="M20.4001 22.7999H22.8001V25.1999H20.4001L20.4001 22.7999Z" fill="#D6FFDD"/>
<path d="M30.0001 22.7999H27.6001V20.3999L30.0001 20.3999V22.7999Z" fill="#D6FFDD"/>
<path d="M18.0001 25.1999H20.4001L20.4001 27.5999H18.0001L18.0001 25.1999Z" fill="#D6FFDD"/>
<path d="M30.0001 27.5999H27.6001V25.1999H30.0001V27.5999Z" fill="#D6FFDD"/>
<path d="M18.0001 20.3999L20.4001 20.3999V22.7999H18.0001L18.0001 20.3999Z" fill="#D6FFDD"/>
<path d="M32.4001 29.9999H30.0001V27.5999H32.4001V29.9999Z" fill="#D6FFDD"/>
<path d="M15.6001 17.9999L18.0001 17.9999L18.0001 20.3999L15.6001 20.3999L15.6001 17.9999Z" fill="#D6FFDD"/>
<path d="M32.4001 20.3999L30.0001 20.3999V17.9999H32.4001V20.3999Z" fill="#D6FFDD"/>
<path d="M15.6001 27.5999H18.0001L18.0001 29.9999H15.6001L15.6001 27.5999Z" fill="#D6FFDD"/>
</g>
<defs>
<linearGradient id="paint0_linear_1050_10993" x1="24" y1="0" x2="24" y2="48" gradientUnits="userSpaceOnUse">
<stop stop-color="#30BA59"/>
<stop offset="1" stop-color="#008522"/>
</linearGradient>
<clipPath id="clip0_1050_10993">
<rect width="48" height="48" fill="white"/>
</clipPath>
</defs>
</svg>
