<svg width="48" height="48" viewBox="0 0 48 48" fill="none" xmlns="http://www.w3.org/2000/svg">
<g clip-path="url(#clip0_1050_10999)">
<path d="M21.6 1.38564C23.0851 0.528204 24.9149 0.528203 26.4 1.38564L42.3846 10.6144C43.8697 11.4718 44.7846 13.0564 44.7846 14.7713V33.2287C44.7846 34.9436 43.8697 36.5282 42.3846 37.3856L26.4 46.6144C24.9149 47.4718 23.0851 47.4718 21.6 46.6144L5.61539 37.3856C4.13027 36.5282 3.21539 34.9436 3.21539 33.2287V14.7713C3.21539 13.0564 4.13027 11.4718 5.61539 10.6144L21.6 1.38564Z" fill="url(#paint0_linear_1050_10999)"/>
<path d="M22.29 2.58105C23.3482 1.97013 24.6518 1.97013 25.71 2.58105L41.6943 11.8096C42.7525 12.4205 43.4043 13.5496 43.4043 14.7715V33.2285C43.4043 34.4504 42.7525 35.5795 41.6943 36.1904L25.71 45.4189C24.6518 46.0299 23.3482 46.0299 22.29 45.4189L6.30566 36.1904C5.24751 35.5795 4.5957 34.4504 4.5957 33.2285V14.7715C4.5957 13.5496 5.24751 12.4205 6.30566 11.8096L22.29 2.58105Z" stroke="white" stroke-opacity="0.2" stroke-width="2.76"/>
<path fill-rule="evenodd" clip-rule="evenodd" d="M25 13H23V15L21 15V17L17 17V21H15L15 23H13L13 25H15L15 27H17L17 31H21V33H23V35H25V33H27V31H31L31 27L29 27L29 29H27L27 31H25V25H31L31 27L33 27V25H35V23H33V21H31V17L27 17V15L25 15V13ZM25 17H27V19L29 19L29 21H31V23H25V17ZM23 31H21L21 29H19V27L17 27L17 25H23V31ZM23 23H17L17 21L19 21V19L21 19V17H23V23Z" fill="#D6FFDD"/>
</g>
<defs>
<linearGradient id="paint0_linear_1050_10999" x1="24" y1="0" x2="24" y2="48" gradientUnits="userSpaceOnUse">
<stop stop-color="#9A45E5"/>
<stop offset="1" stop-color="#008522"/>
</linearGradient>
<clipPath id="clip0_1050_10999">
<rect width="48" height="48" fill="white"/>
</clipPath>
</defs>
</svg>
